<svg xmlns="http://www.w3.org/2000/svg" xmlns:osb="http://www.openswatchbook.org/uri/2009/osb" xmlns:svg="http://www.w3.org/2000/svg" xmlns:xlink="http://www.w3.org/1999/xlink" id="ORANGE_BACKGROUNDS" width="80" height="80" x="0" style="display:inline" y="0" enable-background="new 0 0 96 96" version="1.1" viewBox="0 0 80 80" xml:space="preserve"><metadata id="metadata3069"/><defs id="defs3067"><linearGradient id="GREY4_3_" x1="38.999" x2="38.999" y1="0" y2="78.001" gradientUnits="userSpaceOnUse"><stop style="stop-color:#7a7a7a" id="stop7-82" offset="0"/><stop style="stop-color:#717171" id="stop9-6" offset=".155"/><stop style="stop-color:#595959" id="stop11-603" offset=".406"/><stop style="stop-color:#323232" id="stop13-8" offset=".72"/><stop style="stop-color:#2f2f2f" id="stop15-0" offset=".746"/></linearGradient><linearGradient id="HIGHLIGHT_RIM_3_-1" x1="38.999" x2="38.999" y1="-7.779" y2="133.271" gradientTransform="translate(1,17)" gradientUnits="userSpaceOnUse"><stop style="stop-color:#fff" id="stop19-25" offset="0"/><stop style="stop-color:#000" id="stop21-0" offset="1"/></linearGradient><linearGradient id="linearGradient3024-94" x1="38.999" x2="38.999" y1="0" y2="78.001" gradientTransform="translate(1,17)" gradientUnits="userSpaceOnUse" xlink:href="#GREY4_3_"/><linearGradient id="SVGID_1_-1" x1="298.299" x2="298.299" y1="398.787" y2="464.095" gradientUnits="userSpaceOnUse" osb:paint="gradient"><stop style="stop-color:#f7faee" id="stop4286" offset=".323"/><stop style="stop-color:#d2cac5" id="stop4288" offset="1"/></linearGradient></defs><linearGradient id="RED_x2F_ORANGE_5_2_" x1="47.999" x2="47.999" y1="8.011" y2="87.99" gradientUnits="userSpaceOnUse"><stop style="stop-color:#ffdb62" id="stop3054" offset="0"/><stop style="stop-color:#fad15c" id="stop3056" offset=".139"/><stop style="stop-color:#edb74d" id="stop3058" offset=".374"/><stop style="stop-color:#e6a844" id="stop3060" offset=".485"/><stop style="stop-color:#c96b25" id="stop3062" offset="1"/></linearGradient><g id="layer5" transform="translate(0,-16)" style="display:inline"><rect style="fill:#000;fill-opacity:0;stroke:none;display:inline" id="rect3119" width="80" height="80" x="0" y="16"/></g><g id="g3793" transform="translate(0,-16)" style="display:inline"><path style="fill:url(#linearGradient3024-94)" id="GREY4_1_" d="M 79,56 C 79,84.893 68.895,95 40,95 11.105,95 1,84.893 1,56 1,27.106 11.105,17 40,17 68.895,17 79,27.106 79,56 z"/><path style="fill:url(#HIGHLIGHT_RIM_3_-1);fill-opacity:.25" id="HIGHLIGHT_RIM_2_-7" d="M 40,17 C 11.106,17 1,27.106 1,56 1,84.892 11.106,95 40,95 68.896,95 79,84.892 79,56 79,27.106 68.896,17 40,17 z m 0,77.048 C 11.571,94.048 1.975,84.446 1.975,56 1.975,27.554 11.571,17.953 40,17.953 68.43,17.953 78.025,27.554 78.025,56 78.025,84.446 68.43,94.048 40,94.048 z"/></g><g id="layer2" transform="translate(0,-16)" style="display:inline"><text style="font-size:40px;font-style:normal;font-weight:400;line-height:94.99999881%;letter-spacing:0;word-spacing:0;fill:#000;fill-opacity:1;stroke:none;font-family:Sans" id="text4587" x="39.565" y="54.372" xml:space="preserve"><tspan id="tspan4589" x="39.565" y="54.372" style="font-size:24px;font-style:italic;font-variant:normal;font-weight:400;font-stretch:normal;text-align:center;line-height:94.99999881%;text-anchor:middle;fill:#fff;font-family:Palatino Linotype;-inkscape-font-specification:Palatino Linotype Italic">GAG</tspan><tspan style="font-size:18px;font-style:italic;font-variant:normal;font-weight:400;font-stretch:normal;text-align:center;line-height:94.99999881%;text-anchor:middle;fill:#fff;font-family:Palatino Linotype;-inkscape-font-specification:Palatino Linotype Italic" id="tspan3357" x="39.565" y="74.084">BOOK</tspan></text></g></svg>