<svg xmlns="http://www.w3.org/2000/svg" xmlns:svg="http://www.w3.org/2000/svg" id="svg2" width="30" height="30" x="0" y="0" enable-background="new 0 0 30 30" version="1.1" viewBox="0 0 30 30" xml:space="preserve"><metadata id="metadata23"/><g id="DO_NOT_EDIT_-_BOUNDING_BOX"><rect id="BOUNDING_BOX" width="30" height="30" fill="none"/></g><g id="PLACE_YOUR_GRAPHIC_HERE"><g id="g7"><path id="path9" d="M23,5H7c-2.75,0-5,2.25-5,5v8c0,2.75,2.25,5,5,5h18l3,3V10C28,7.25,25.75,5,23,5z M19,19H8 c-0.553,0-1-0.447-1-1s0.447-1,1-1h11c0.553,0,1,0.447,1,1S19.553,19,19,19z M22,15H8c-0.553,0-1-0.447-1-1s0.447-1,1-1h14 c0.553,0,1,0.447,1,1S22.553,15,22,15z M22,11H8c-0.553,0-1-0.447-1-1s0.447-1,1-1h14c0.553,0,1,0.447,1,1S22.553,11,22,11z" opacity=".3"/><rect id="rect11" width="30" height="30" y="0" fill="none"/><path id="path13" d="M28,28c-0.26,0-0.516-0.102-0.707-0.293L24.586,25H7c-3.309,0-6-2.691-6-6v-8c0-3.309,2.691-6,6-6h16 c3.309,0,6,2.691,6,6v16c0,0.404-0.243,0.77-0.617,0.924C28.259,27.976,28.129,28,28,28z" opacity=".15"/><path id="path15" d="M23,6H7c-2.75,0-5,2.25-5,5v8c0,2.75,2.25,5,5,5h18l3,3V11C28,8.25,25.75,6,23,6z M19,20H8 c-0.553,0-1-0.447-1-1s0.447-1,1-1h11c0.553,0,1,0.447,1,1S19.553,20,19,20z M22,16H8c-0.553,0-1-0.447-1-1s0.447-1,1-1h14 c0.553,0,1,0.447,1,1S22.553,16,22,16z M22,12H8c-0.553,0-1-0.447-1-1s0.447-1,1-1h14c0.553,0,1,0.447,1,1S22.553,12,22,12z" opacity=".15"/><path id="path17" fill="#000" d="M23,6H7c-2.75,0-5,2.25-5,5v8c0,2.75,2.25,5,5,5h18l3,3V11C28,8.25,25.75,6,23,6z M19,20H8 c-0.553,0-1-0.447-1-1s0.447-1,1-1h11c0.553,0,1,0.447,1,1S19.553,20,19,20z M22,16H8c-0.553,0-1-0.447-1-1s0.447-1,1-1h14 c0.553,0,1,0.447,1,1S22.553,16,22,16z M22,12H8c-0.553,0-1-0.447-1-1s0.447-1,1-1h14c0.553,0,1,0.447,1,1S22.553,12,22,12z"/></g></g></svg>