<svg xmlns="http://www.w3.org/2000/svg" xmlns:svg="http://www.w3.org/2000/svg" id="svg2" width="30" height="30" x="0" y="0" enable-background="new 0 0 30 30" version="1.1" viewBox="0 0 30 30" xml:space="preserve"><metadata id="metadata23"/><g id="DO_NOT_EDIT_-_BOUNDING_BOX"><rect id="BOUNDING_BOX" width="30" height="30" fill="none"/></g><g id="PLACE_YOUR_GRAPHIC_HERE"><g id="g7"><path id="path9" d="M15,1L6,16h5.5v10c0,0.549,0.45,1,1,1h5c0.549,0,1-0.451,1-1V16H24L15,1z" opacity=".3"/><path id="path11" d="M12.5,29c-1.103,0-2-0.897-2-2v-9H6c-0.36,0-0.693-0.193-0.87-0.507c-0.178-0.314-0.173-0.699,0.013-1.008 l9-15C14.323,1.184,14.649,1,15,1s0.677,0.184,0.857,0.485l9,15c0.186,0.309,0.19,0.693,0.013,1.008C24.692,17.807,24.36,18,24,18 h-4.5v9c0,1.103-0.897,2-2,2H12.5z" opacity=".15"/><path id="path13" d="M15,2L6,17h5.5v10c0,0.549,0.45,1,1,1h5c0.549,0,1-0.451,1-1V17H24L15,2z" opacity=".15"/><path id="path15" fill="#000" d="M15,2L6,17h5.5v10c0,0.549,0.45,1,1,1h5c0.549,0,1-0.451,1-1V17H24L15,2z"/><rect id="rect17" width="30" height="30" fill="none"/></g></g></svg>